<svg width="26" height="26" viewBox="0 0 26 26" fill="none" xmlns="http://www.w3.org/2000/svg">
<path d="M18.9881 2.08C19.6641 2.07936 20.3333 2.2299 20.9567 2.52278C21.58 2.81565 22.1449 3.24499 22.6181 3.7856C23.5933 4.89464 24.14 6.38888 24.14 7.9456C24.14 9.50232 23.5933 10.9966 22.6181 12.1056L13 23.0152L3.38186 12.1056C2.40666 10.9966 1.86003 9.50232 1.86003 7.9456C1.86003 6.38888 2.40666 4.89464 3.38186 3.7856C3.85542 3.24538 4.42034 2.81627 5.0436 2.52335C5.66686 2.23042 6.33598 2.07956 7.01187 2.07956C7.68776 2.07956 8.35688 2.23042 8.98014 2.52335C9.60341 2.81627 10.1683 3.24538 10.6419 3.7856L13 6.4896L15.3488 3.8064C15.8207 3.25934 16.3862 2.8245 17.0115 2.52787C17.6368 2.23123 18.3091 2.07891 18.9881 2.08ZM18.9881 2.79017e-06C18.065 -0.000873639 17.1509 0.204732 16.2996 0.604765C15.4483 1.0048 14.6769 1.5912 14.0305 2.3296L13 3.4944L11.9695 2.3296C11.3223 1.59254 10.5507 1.00715 9.69956 0.607561C8.8484 0.207973 7.93475 0.00218133 7.01187 0.00218133C6.08899 0.00218133 5.17534 0.207973 4.32419 0.607561C3.47303 1.00715 2.70139 1.59254 2.05426 2.3296C0.737685 3.83097 0 5.85142 0 7.956C0 10.0606 0.737685 12.081 2.05426 13.5824L13 26L23.9457 13.5824C25.2623 12.081 26 10.0606 26 7.956C26 5.85142 25.2623 3.83097 23.9457 2.3296C23.2988 1.59214 22.5272 1.00635 21.676 0.606386C20.8249 0.206421 19.9111 0.000287142 18.9881 2.79017e-06Z" fill="white"/>
</svg>
