<svg width="58" height="58" viewBox="0 0 58 58" fill="none" xmlns="http://www.w3.org/2000/svg">
<circle cx="29" cy="29" r="29" fill="#2D2D2D"/>
<g clip-path="url(#clip0_30_106)">
<path fill-rule="evenodd" clip-rule="evenodd" d="M23.7488 30.0015C23.4832 29.7358 23.334 29.3756 23.334 28.9999C23.334 28.6243 23.4832 28.264 23.7488 27.9983L31.7628 19.9842C31.8935 19.8489 32.0499 19.741 32.2227 19.6668C32.3955 19.5925 32.5814 19.5534 32.7695 19.5518C32.9576 19.5502 33.1442 19.586 33.3183 19.6573C33.4924 19.7285 33.6506 19.8337 33.7836 19.9667C33.9166 20.0997 34.0218 20.2579 34.093 20.432C34.1642 20.6061 34.2001 20.7926 34.1985 20.9807C34.1968 21.1688 34.1577 21.3547 34.0835 21.5276C34.0092 21.7004 33.9013 21.8567 33.766 21.9874L26.7535 28.9999L33.766 36.0124C34.0241 36.2796 34.1669 36.6375 34.1636 37.0089C34.1604 37.3803 34.0114 37.7357 33.7488 37.9983C33.4861 38.261 33.1308 38.41 32.7593 38.4132C32.3879 38.4164 32.03 38.2736 31.7628 38.0156L23.7488 30.0015Z" fill="white"/>
</g>
<defs>
<clipPath id="clip0_30_106">
<rect width="34" height="34" fill="white" transform="translate(6 12)"/>
</clipPath>
</defs>
</svg>
