<svg width="81" height="54" viewBox="0 0 81 54" fill="none" xmlns="http://www.w3.org/2000/svg">
<path d="M33.7778 39.1943L21.0549 0H28.4149L37.7352 29.5521L46.4267 0H53.8607L62.5522 29.5521L71.8724 0H79.2324L66.5096 39.1943H58.9276L50.1252 10.415L41.3597 39.1943H33.7778Z" fill="#EC5151"/>
<path d="M26.6056 31.9451V22.8559H9.32233C8.31075 22.8559 7.36085 22.6719 6.47263 22.304C5.58442 21.9114 4.80722 21.3963 4.14106 20.7584C3.49957 20.0961 2.98144 19.3233 2.58668 18.4402C2.21659 17.557 2.03155 16.6125 2.03155 15.6067V7.25353C2.03155 6.24772 2.21659 5.30323 2.58668 4.42008C2.98144 3.53692 3.49957 2.77643 4.14106 2.13859C4.25911 2.02122 4.38064 1.90847 4.50565 1.80035C5.08615 1.29827 5.74181 0.895847 6.47263 0.593072C7.36085 0.200558 8.31075 0.00430182 9.32233 0.00430182H22.7936L19.2408 0.00430329L21.5957 7.25353H9.32233V15.6067H24.3093L31.3944 37.4166C30.8116 37.9091 30.1529 38.3177 29.4182 38.6423C28.5547 39.0103 27.6171 39.1943 26.6056 39.1943H2.03155V31.9451H26.6056Z" fill="white"/>
<path d="M32.379 7.03975V0.00430182H30.1584L32.379 7.03975Z" fill="white"/>
<path d="M76.1197 51.044C75.3477 51.044 74.6519 50.8713 74.0322 50.5259C73.4126 50.1704 72.9199 49.6777 72.5542 49.0479C72.1987 48.4181 72.0209 47.6766 72.0209 46.8233C72.0209 45.9599 72.1987 45.2133 72.5542 44.5835C72.9199 43.9537 73.4126 43.4661 74.0322 43.1207C74.6519 42.7754 75.3477 42.6027 76.1197 42.6027C76.8104 42.6027 77.4148 42.7551 77.9329 43.0598C78.451 43.3645 78.8522 43.8267 79.1366 44.4464C79.421 45.066 79.5633 45.8583 79.5633 46.8233C79.5633 47.7782 79.4261 48.5705 79.1519 49.2003C78.8776 49.82 78.4814 50.2821 77.9634 50.5869C77.4555 50.8916 76.8409 51.044 76.1197 51.044ZM76.5311 49.0937C76.9171 49.0937 77.2675 49.0022 77.5824 48.8194C77.8973 48.6365 78.1462 48.3775 78.3291 48.0423C78.5221 47.6969 78.6186 47.2906 78.6186 46.8233C78.6186 46.3459 78.5221 45.9396 78.3291 45.6044C78.1462 45.2692 77.8973 45.0101 77.5824 44.8273C77.2675 44.6444 76.9171 44.553 76.5311 44.553C76.1349 44.553 75.7794 44.6444 75.4645 44.8273C75.1496 45.0101 74.8957 45.2692 74.7027 45.6044C74.5198 45.9396 74.4284 46.3459 74.4284 46.8233C74.4284 47.2906 74.5198 47.6969 74.7027 48.0423C74.8957 48.3775 75.1496 48.6365 75.4645 48.8194C75.7794 49.0022 76.1349 49.0937 76.5311 49.0937ZM78.6795 50.9221V49.246L78.7252 46.8081L78.5729 44.3854V39.6162H80.9498V50.9221H78.6795Z" fill="#EC5151"/>
<path d="M66.1569 50.9221V42.7246H68.4272V45.0406L68.1072 44.3702C68.351 43.7912 68.7421 43.3544 69.2805 43.0598C69.8189 42.7551 70.474 42.6027 71.2461 42.6027V44.7968C71.1445 44.7867 71.0531 44.7816 70.9718 44.7816C70.8905 44.7714 70.8042 44.7663 70.7128 44.7663C70.0626 44.7663 69.5344 44.9543 69.1281 45.3301C68.7319 45.6958 68.5339 46.2697 68.5339 47.0519V50.9221H66.1569Z" fill="#EC5151"/>
<path d="M61.781 50.9221V49.3222L61.6286 48.9718V46.1072C61.6286 45.5993 61.4712 45.2031 61.1563 44.9187C60.8515 44.6343 60.3792 44.4921 59.7392 44.4921C59.3024 44.4921 58.8707 44.5632 58.4441 44.7054C58.0276 44.8375 57.6721 45.0203 57.3775 45.2539L56.5242 43.5931C56.9712 43.2782 57.5095 43.0344 58.1393 42.8617C58.7691 42.689 59.4091 42.6027 60.0592 42.6027C61.3086 42.6027 62.2787 42.8973 62.9695 43.4864C63.6602 44.0756 64.0056 44.9949 64.0056 46.2443V50.9221H61.781ZM59.2821 51.044C58.6422 51.044 58.0936 50.9373 57.6365 50.724C57.1794 50.5005 56.829 50.2009 56.5852 49.825C56.3414 49.4492 56.2195 49.0276 56.2195 48.5604C56.2195 48.0728 56.3363 47.6461 56.5699 47.2805C56.8137 46.9148 57.1946 46.6303 57.7127 46.4272C58.2308 46.2139 58.9063 46.1072 59.7392 46.1072H61.9181V47.4938H59.9983C59.4396 47.4938 59.0536 47.5852 58.8402 47.768C58.6371 47.9509 58.5355 48.1794 58.5355 48.4537C58.5355 48.7584 58.6523 49.0022 58.8859 49.1851C59.1297 49.3578 59.4599 49.4441 59.8764 49.4441C60.2725 49.4441 60.628 49.3527 60.9429 49.1698C61.2578 48.9768 61.4864 48.6975 61.6286 48.3318L61.9943 49.4289C61.8216 49.9571 61.5067 50.3583 61.0496 50.6326C60.5925 50.9069 60.0033 51.044 59.2821 51.044Z" fill="#EC5151"/>
<path d="M42.5916 50.9221L39.1023 40.2562H41.6621L44.6943 49.7032H43.4144L46.5837 40.2562H48.8692L51.9166 49.7032H50.6824L53.7908 40.2562H56.1525L52.6633 50.9221H50.012L47.3151 42.6332H48.016L45.2428 50.9221H42.5916Z" fill="#EC5151"/>
<path d="M34.6176 51.044C33.6831 51.044 32.8603 50.8612 32.1492 50.4955C31.4483 50.1298 30.9048 49.632 30.5188 49.0022C30.1328 48.3623 29.9398 47.636 29.9398 46.8233C29.9398 46.0005 30.1277 45.2743 30.5036 44.6445C30.8896 44.0045 31.4127 43.5068 32.073 43.1512C32.7333 42.7855 33.4799 42.6027 34.3129 42.6027C35.1153 42.6027 35.8366 42.7754 36.4765 43.1208C37.1266 43.456 37.6396 43.9435 38.0154 44.5835C38.3913 45.2133 38.5792 45.9701 38.5792 46.8538C38.5792 46.9452 38.5741 47.0519 38.564 47.1738C38.5538 47.2855 38.5437 47.3922 38.5335 47.4938H31.8749V46.1072H37.2841L36.3699 46.5186C36.3699 46.092 36.2835 45.7212 36.1108 45.4063C35.9381 45.0914 35.6994 44.8476 35.3947 44.6749C35.0899 44.4921 34.7344 44.4007 34.3281 44.4007C33.9218 44.4007 33.5612 44.4921 33.2463 44.6749C32.9415 44.8476 32.7028 45.0965 32.5301 45.4215C32.3574 45.7364 32.2711 46.1123 32.2711 46.5491V46.9148C32.2711 47.3617 32.3676 47.7579 32.5606 48.1033C32.7638 48.4385 33.0431 48.6975 33.3986 48.8803C33.7643 49.053 34.191 49.1394 34.6785 49.1394C35.1153 49.1394 35.4963 49.0733 35.8213 48.9413C36.1565 48.8092 36.4613 48.6112 36.7355 48.347L38.0002 49.7184C37.6244 50.145 37.152 50.4752 36.5832 50.7088C36.0143 50.9323 35.3591 51.044 34.6176 51.044Z" fill="white"/>
<path d="M25.9662 50.9221V39.6162H28.3432V50.9221H25.9662Z" fill="white"/>
<path d="M17.8959 54C17.4692 54 17.0477 53.934 16.6312 53.8019C16.2147 53.6698 15.8744 53.487 15.6103 53.2534L16.4788 51.5621C16.6617 51.7246 16.8699 51.8516 17.1035 51.943C17.3473 52.0344 17.586 52.0801 17.8197 52.0801C18.1549 52.0801 18.419 51.9989 18.612 51.8363C18.8152 51.684 18.998 51.4249 19.1605 51.0592L19.5872 50.0536L19.77 49.7946L22.7108 42.7246H24.9963L21.2937 51.4249C21.0296 52.0852 20.7249 52.6033 20.3795 52.9791C20.0443 53.3549 19.6684 53.6191 19.2519 53.7714C18.8456 53.9238 18.3936 54 17.8959 54ZM19.2977 51.2421L15.6408 42.7246H18.0939L20.928 49.5812L19.2977 51.2421Z" fill="white"/>
<path d="M13.7391 51.044C12.7741 51.044 12.0224 50.8002 11.484 50.3126C10.9457 49.8149 10.6765 49.0784 10.6765 48.1032V40.9114H13.0535V48.0728C13.0535 48.4181 13.1449 48.6873 13.3277 48.8803C13.5106 49.0632 13.7594 49.1546 14.0743 49.1546C14.4502 49.1546 14.7702 49.053 15.0343 48.8499L15.6742 50.5259C15.4304 50.6986 15.1359 50.8307 14.7905 50.9221C14.4553 51.0034 14.1048 51.044 13.7391 51.044ZM9.41181 44.7359V42.9074H15.0952V44.7359H9.41181Z" fill="white"/>
<path d="M4.34255 51.105C3.48928 51.105 2.67156 50.9932 1.88939 50.7698C1.10722 50.5361 0.477427 50.2365 0 49.8708L0.838036 48.0119C1.29515 48.3369 1.83352 48.6061 2.45316 48.8194C3.08296 49.0226 3.71783 49.1242 4.35779 49.1242C4.84537 49.1242 5.23646 49.0785 5.53104 48.987C5.83578 48.8855 6.05926 48.7483 6.20147 48.5756C6.34368 48.403 6.41479 48.2049 6.41479 47.9814C6.41479 47.697 6.30305 47.4735 6.07957 47.311C5.85609 47.1383 5.56151 47.0011 5.19582 46.8996C4.83014 46.7878 4.42381 46.6862 3.97686 46.5948C3.54007 46.4932 3.09819 46.3713 2.65124 46.2291C2.21445 46.0869 1.81321 45.9041 1.44752 45.6806C1.08183 45.4571 0.782167 45.1625 0.548533 44.7969C0.325056 44.4312 0.213318 43.9639 0.213318 43.3951C0.213318 42.7856 0.375847 42.232 0.700903 41.7342C1.03612 41.2263 1.53386 40.8251 2.19413 40.5305C2.86456 40.2258 3.7026 40.0734 4.70824 40.0734C5.37867 40.0734 6.03894 40.1546 6.68905 40.3172C7.33916 40.4695 7.91309 40.7032 8.41084 41.0181L7.64898 42.8922C7.15124 42.6078 6.6535 42.3996 6.15576 42.2675C5.65801 42.1253 5.17043 42.0542 4.693 42.0542C4.21558 42.0542 3.82449 42.1101 3.51975 42.2218C3.21501 42.3335 2.99661 42.4808 2.86456 42.6637C2.73251 42.8364 2.66648 43.0395 2.66648 43.2732C2.66648 43.5474 2.77822 43.7709 3.00169 43.9436C3.22517 44.1061 3.51975 44.2382 3.88544 44.3397C4.25113 44.4413 4.65237 44.5429 5.08916 44.6445C5.53612 44.7461 5.97799 44.8629 6.41479 44.9949C6.86174 45.127 7.26806 45.3048 7.63375 45.5282C7.99944 45.7517 8.29402 46.0463 8.51749 46.412C8.75113 46.7777 8.86795 47.2399 8.86795 47.7985C8.86795 48.3979 8.70034 48.9464 8.36512 49.4441C8.02991 49.9419 7.52709 50.3431 6.85666 50.6479C6.19639 50.9526 5.35835 51.105 4.34255 51.105Z" fill="white"/>
</svg>
