<svg width="58" height="58" viewBox="0 0 58 58" fill="none" xmlns="http://www.w3.org/2000/svg">
<circle cx="29" cy="29" r="29" fill="#2D2D2D"/>
<g clip-path="url(#clip0_30_112)">
<path fill-rule="evenodd" clip-rule="evenodd" d="M34.2512 30.0015C34.5168 29.7358 34.666 29.3756 34.666 28.9999C34.666 28.6243 34.5168 28.264 34.2512 27.9983L26.2372 19.9842C26.1065 19.8489 25.9501 19.741 25.7773 19.6668C25.6045 19.5925 25.4186 19.5534 25.2305 19.5518C25.0424 19.5502 24.8558 19.586 24.6817 19.6573C24.5076 19.7285 24.3494 19.8337 24.2164 19.9667C24.0834 20.0997 23.9782 20.2579 23.907 20.432C23.8358 20.6061 23.7999 20.7926 23.8015 20.9807C23.8032 21.1688 23.8423 21.3547 23.9165 21.5276C23.9908 21.7004 24.0987 21.8567 24.234 21.9874L31.2465 28.9999L24.234 36.0124C23.9759 36.2796 23.8331 36.6375 23.8364 37.0089C23.8396 37.3803 23.9886 37.7357 24.2512 37.9983C24.5139 38.261 24.8692 38.41 25.2407 38.4132C25.6121 38.4164 25.97 38.2736 26.2372 38.0156L34.2512 30.0015Z" fill="white"/>
</g>
<defs>
<clipPath id="clip0_30_112">
<rect width="34" height="34" fill="white" transform="matrix(-1 0 0 1 46 12)"/>
</clipPath>
</defs>
</svg>
