<svg width="23" height="24" viewBox="0 0 23 24" fill="none" xmlns="http://www.w3.org/2000/svg">
<path d="M20.75 23.25L12.875 15.375C12.25 15.875 11.5312 16.2708 10.7188 16.5625C9.90625 16.8542 9.04167 17 8.125 17C5.85417 17 3.9325 16.2133 2.36 14.64C0.7875 13.0667 0.000833333 11.145 0 8.875C0 6.60417 0.786667 4.6825 2.36 3.11C3.93333 1.5375 5.855 0.750833 8.125 0.75C10.3958 0.75 12.3175 1.53667 13.89 3.11C15.4625 4.68333 16.2492 6.605 16.25 8.875C16.25 9.79167 16.1042 10.6562 15.8125 11.4688C15.5208 12.2812 15.125 13 14.625 13.625L22.5 21.5L20.75 23.25ZM8.125 14.5C9.6875 14.5 11.0158 13.9529 12.11 12.8588C13.2042 11.7646 13.7508 10.4367 13.75 8.875C13.75 7.3125 13.2029 5.98417 12.1088 4.89C11.0146 3.79583 9.68667 3.24917 8.125 3.25C6.5625 3.25 5.23417 3.79708 4.14 4.89125C3.04583 5.98542 2.49917 7.31333 2.5 8.875C2.5 10.4375 3.04708 11.7658 4.14125 12.86C5.23542 13.9542 6.56333 14.5008 8.125 14.5Z" fill="white"/>
</svg>
