<svg width="26" height="26" viewBox="0 0 26 26" fill="none" xmlns="http://www.w3.org/2000/svg">
<path d="M24.2157 6.36735H18.8627V6.10204C18.8627 4.48368 18.2451 2.9316 17.1456 1.78725C16.0461 0.642892 14.5549 0 13 0C11.4451 0 9.95389 0.642892 8.85441 1.78725C7.75494 2.9316 7.13726 4.48368 7.13726 6.10204V6.36735H1.78431C1.31108 6.36735 0.857237 6.56301 0.522614 6.91129C0.18799 7.25957 0 7.73194 0 8.22449V24.1429C0 24.6354 0.18799 25.1078 0.522614 25.4561C0.857237 25.8043 1.31108 26 1.78431 26H24.2157C24.6889 26 25.1428 25.8043 25.4774 25.4561C25.812 25.1078 26 24.6354 26 24.1429V8.22449C26 7.73194 25.812 7.25957 25.4774 6.91129C25.1428 6.56301 24.6889 6.36735 24.2157 6.36735ZM8.66667 6.10204C8.66667 4.90586 9.12321 3.75867 9.93587 2.91284C10.7485 2.06702 11.8507 1.59184 13 1.59184C14.1493 1.59184 15.2515 2.06702 16.0641 2.91284C16.8768 3.75867 17.3333 4.90586 17.3333 6.10204V6.36735H8.66667V6.10204ZM24.4706 24.1429C24.4706 24.2132 24.4437 24.2807 24.3959 24.3305C24.3481 24.3802 24.2833 24.4082 24.2157 24.4082H1.78431C1.71671 24.4082 1.65187 24.3802 1.60407 24.3305C1.55627 24.2807 1.52941 24.2132 1.52941 24.1429V8.22449C1.52941 8.15413 1.55627 8.08664 1.60407 8.03689C1.65187 7.98714 1.71671 7.95918 1.78431 7.95918H7.13726V10.3469C7.13726 10.558 7.21782 10.7605 7.36123 10.9097C7.50464 11.059 7.69915 11.1429 7.90196 11.1429C8.10477 11.1429 8.29928 11.059 8.44269 10.9097C8.5861 10.7605 8.66667 10.558 8.66667 10.3469V7.95918H17.3333V10.3469C17.3333 10.558 17.4139 10.7605 17.5573 10.9097C17.7007 11.059 17.8952 11.1429 18.098 11.1429C18.3009 11.1429 18.4954 11.059 18.6388 10.9097C18.7822 10.7605 18.8627 10.558 18.8627 10.3469V7.95918H24.2157C24.2833 7.95918 24.3481 7.98714 24.3959 8.03689C24.4437 8.08664 24.4706 8.15413 24.4706 8.22449V24.1429Z" fill="white"/>
</svg>
