<svg width="28" height="28" viewBox="0 0 28 28" fill="none" xmlns="http://www.w3.org/2000/svg">
<path d="M25.2157 7.21735H20.0127V7.10204C20.0127 5.44579 19.3807 3.85623 18.2538 2.68332C17.1266 1.51021 15.5967 0.85 14 0.85C12.4033 0.85 10.8734 1.51021 9.74625 2.68332C8.61934 3.85623 7.98726 5.44579 7.98726 7.10204V7.21735H2.78431C2.26932 7.21735 1.7767 7.43033 1.41445 7.80737C1.05239 8.1842 0.85 8.69406 0.85 9.22449V25.1429C0.85 25.6733 1.05239 26.1831 1.41445 26.56C1.7767 26.937 2.26932 27.15 2.78431 27.15H25.2157C25.7307 27.15 26.2233 26.937 26.5856 26.56C26.9476 26.1831 27.15 25.6733 27.15 25.1429V9.22449C27.15 8.69406 26.9476 8.1842 26.5856 7.80737C26.2233 7.43033 25.7307 7.21735 25.2157 7.21735ZM9.81667 7.10204C9.81667 5.94375 10.2588 4.83405 11.044 4.01677C11.8291 3.19969 12.8925 2.74184 14 2.74184C15.1075 2.74184 16.1709 3.19969 16.956 4.01677C17.7412 4.83405 18.1833 5.94375 18.1833 7.10204V7.21735H9.81667V7.10204ZM25.3206 25.1429C25.3206 25.1753 25.3081 25.2053 25.2878 25.2265C25.2676 25.2475 25.2415 25.2582 25.2157 25.2582H2.78431C2.75847 25.2582 2.73241 25.2475 2.71224 25.2265C2.69186 25.2053 2.67941 25.1753 2.67941 25.1429V9.22449C2.67941 9.19201 2.69186 9.16202 2.71224 9.14081C2.73241 9.11981 2.75847 9.10918 2.78431 9.10918H7.98726V11.3469C7.98726 11.5959 8.08223 11.8358 8.25307 12.0137C8.4241 12.1917 8.65739 12.2929 8.90196 12.2929C9.14654 12.2929 9.37982 12.1917 9.55086 12.0137C9.72169 11.8358 9.81667 11.5959 9.81667 11.3469V9.10918H18.1833V11.3469C18.1833 11.5959 18.2783 11.8358 18.4491 12.0137C18.6202 12.1917 18.8535 12.2929 19.098 12.2929C19.3426 12.2929 19.5759 12.1917 19.7469 12.0137C19.9178 11.8358 20.0127 11.5959 20.0127 11.3469V9.10918H25.2157C25.2415 9.10918 25.2676 9.11981 25.2878 9.14081C25.3081 9.16202 25.3206 9.19201 25.3206 9.22449V25.1429Z" fill="white" stroke="white" stroke-width="0.3"/>
</svg>
