<svg width="30" height="30" viewBox="0 0 30 30" fill="none" xmlns="http://www.w3.org/2000/svg">
<path d="M24.5055 5.88465L24.5053 5.88441C24.045 5.35868 23.4967 4.94223 22.8929 4.65854C22.2891 4.37487 21.6417 4.22938 20.9883 4.23L20.9879 4.23C20.3316 4.22895 19.6813 4.37614 19.0758 4.66339C18.4701 4.95068 17.9212 5.37242 17.4624 5.90437L17.4617 5.90521L15.1129 8.5884L14.9998 8.71758L14.887 8.58819L12.5291 5.88448C12.5291 5.88446 12.529 5.88444 12.529 5.88441C12.0685 5.35907 11.5201 4.94284 10.9163 4.6591C10.3127 4.37538 9.66528 4.22956 9.01187 4.22956C8.35846 4.22956 7.71109 4.37538 7.1074 4.6591C6.50364 4.94286 5.9552 5.3591 5.49466 5.88448L5.4945 5.88465C4.54476 6.96474 4.01003 8.42319 4.01003 9.9456C4.01003 11.468 4.54476 12.9265 5.4945 14.0066L15 24.7884L24.5055 14.0066V5.88465ZM24.5055 5.88465C25.4552 6.96474 25.99 8.42319 25.99 9.9456M24.5055 5.88465L25.99 9.9456M3.0995 3.4099L3.09956 3.40984C3.80949 2.60125 4.65695 1.95799 5.59307 1.51851C6.52926 1.07901 7.53492 0.852349 8.55125 0.852349C9.56758 0.852349 10.5732 1.07901 11.5094 1.51851C12.4455 1.95796 13.2929 2.60115 14.0028 3.40966C14.0028 3.40972 14.0029 3.40978 14.0029 3.40984L15 4.53683L15.9969 3.41001C15.997 3.40993 15.9971 3.40985 15.9971 3.40977C16.7062 2.5998 17.5534 1.95547 18.4896 1.51553C19.426 1.07552 20.4321 0.849052 21.4488 0.850003C21.4488 0.850003 21.4489 0.850003 21.4489 0.850003M3.0995 3.4099L24.3434 1.65303C23.4268 1.2223 22.4428 1.00031 21.4488 1L21.4489 0.850003M3.0995 3.4099C1.65628 5.05569 0.85 7.26727 0.85 9.568C0.85 11.8687 1.65628 14.0803 3.0995 15.7261L3.09975 15.7264L14.8875 29.0992L15 29.2268L15.1125 29.0992L26.9002 15.7264L26.9005 15.7261C28.3437 14.0803 29.15 11.8687 29.15 9.568C29.15 7.26727 28.3437 5.05569 26.9005 3.4099L26.9005 3.40988C26.1907 2.60086 25.3433 1.95716 24.4072 1.51727C23.4711 1.07737 22.4653 0.850331 21.4489 0.850003M3.0995 3.4099L21.4489 0.850003M25.99 9.9456C25.99 11.4679 25.4553 12.9263 24.5056 14.0064L25.99 9.9456Z" fill="white" stroke="white" stroke-width="0.3"/>
</svg>
