<svg width="30" height="30" viewBox="0 0 30 30" fill="none" xmlns="http://www.w3.org/2000/svg">
<path d="M15 13.875C14.1712 13.875 13.3763 13.5458 12.7903 12.9597C12.2042 12.3737 11.875 11.5788 11.875 10.75C11.875 9.9212 12.2042 9.12634 12.7903 8.54029C13.3763 7.95424 14.1712 7.625 15 7.625C15.8288 7.625 16.6237 7.95424 17.2097 8.54029C17.7958 9.12634 18.125 9.9212 18.125 10.75C18.125 11.1604 18.0442 11.5667 17.8871 11.9459C17.7301 12.325 17.4999 12.6695 17.2097 12.9597C16.9195 13.2499 16.575 13.4801 16.1959 13.6371C15.8167 13.7942 15.4104 13.875 15 13.875ZM15 2C12.6794 2 10.4538 2.92187 8.81282 4.56282C7.17187 6.20376 6.25 8.42936 6.25 10.75C6.25 17.3125 15 27 15 27C15 27 23.75 17.3125 23.75 10.75C23.75 8.42936 22.8281 6.20376 21.1872 4.56282C19.5462 2.92187 17.3206 2 15 2Z" fill="white"/>
</svg>
